<?xml version="1.0" encoding="utf-8"?>
<!-- Generator: Adobe Illustrator 24.3.0, SVG Export Plug-In . SVG Version: 6.00 Build 0)  -->
<svg version="1.1" id="Layer_1" xmlns="http://www.w3.org/2000/svg" xmlns:xlink="http://www.w3.org/1999/xlink" x="0px" y="0px"
	 viewBox="0 0 1366 768" style="enable-background:new 0 0 1366 768;" xml:space="preserve">
<style type="text/css">
	.st0{fill:none;stroke:#000000;stroke-miterlimit:10;}
	.st1{font-family:'MyriadPro-Regular';}
	.st2{font-size:24px;}
	.st3{fill:none;}
</style>
<g>
	<path d="M1318.07,13.47v174h-1291v-174H1318.07 M1319.07,12.47h-1293v176h1293V12.47L1319.07,12.47z"/>
</g>
<g>
	<path d="M154.07,28.47c64.51,0,117,33.64,117,75s-52.49,75-117,75s-117-33.64-117-75S89.55,28.47,154.07,28.47 M154.07,27.47
		c-65.17,0-118,34.03-118,76s52.83,76,118,76c65.17,0,118-34.03,118-76S219.24,27.47,154.07,27.47L154.07,27.47z"/>
</g>
<text transform="matrix(1 0 0 1 417.9082 62.0528)"><tspan x="0" y="0" class="st1 st2">Header</tspan><tspan x="0" y="28.8" class="st1 st2">Welcome to your Town’s Issues</tspan></text>
<g>
	<path class="st0" d="M244.52,262.47H70.99c-6.59,0-11.98-5.4-11.98-12v-13c0-6.6,5.39-12,11.98-12h207.68
		c6.59,0,11.98,5.4,11.98,12v13c0,6.6-5.39,12-11.98,12H244.52"/>
	<g>
		<path class="st0" d="M692.22,262.53H518.7c-6.59,0-11.98-5.4-11.98-12v-13c0-6.6,5.39-12,11.98-12h207.68
			c6.59,0,11.98,5.4,11.98,12v13c0,6.6-5.39,12-11.98,12H692.22"/>
		<text transform="matrix(0.9985 0 0 1 554.8259 251.8425)" class="st1 st2">Categories</text>
	</g>
	<g>
		<path d="M1306.57,201.47c6.07,0,11,4.93,11,11v49c0,6.07-4.93,11-11,11h-1269c-6.07,0-11-4.93-11-11v-49c0-6.07,4.93-11,11-11
			H1306.57 M1306.57,200.47h-1269c-6.6,0-12,5.4-12,12v49c0,6.6,5.4,12,12,12h1269c6.6,0,12-5.4,12-12v-49
			C1318.57,205.87,1313.17,200.47,1306.57,200.47L1306.57,200.47z"/>
	</g>
	<g>
		<path class="st0" d="M1165.49,262.53H991.97c-6.59,0-11.98-5.4-11.98-12v-13c0-6.6,5.39-12,11.98-12h207.68
			c6.59,0,11.98,5.4,11.98,12v13c0,6.6-5.39,12-11.98,12H1165.49"/>
		<text transform="matrix(0.9985 0 0 1 1072.6062 250.4211)" class="st1 st2">Issues</text>
	</g>
	<text transform="matrix(0.9985 0 0 1 146.0085 250.0788)" class="st1 st2">Home</text>
</g>
<text transform="matrix(1 0 0 1 503.5662 123.7634)" class="st1 st2">Create a Issue</text>
<g>
	<rect x="430.71" y="327.03" class="st0" width="358" height="358"/>
	<rect x="436.71" y="355.03" class="st0" width="340" height="102"/>
	<line class="st0" x1="436.71" y1="355.03" x2="776.71" y2="457.03"/>
	<line class="st0" x1="436.71" y1="457.03" x2="776.71" y2="355.03"/>
	<text transform="matrix(1 0 0 1 451.9473 480.5263)" class="st1 st2">Form for Issue</text>
</g>
<text transform="matrix(1 0 0 1 540.948 489.5263)"><tspan x="0" y="0" class="st1 st2"> </tspan><tspan x="0" y="28.8" class="st1 st2">Issue Name/title</tspan><tspan x="0" y="57.6" class="st1 st2">Issue Description</tspan><tspan x="0" y="86.4" class="st1 st2">Issue cross_street_1</tspan><tspan x="0" y="115.2" class="st1 st2">Date</tspan><tspan x="0" y="144" class="st1 st2">Resolved</tspan><tspan x="0" y="172.8" class="st1 st2">Categoy name</tspan></text>
</svg>
